<?xml version="1.0" encoding="utf-8"?><svg xmlns="http://www.w3.org/2000/svg" xmlns:xlink="http://www.w3.org/1999/xlink" width="1176" height="969" preserveAspectRatio="xMidYMid" viewBox="0 0 1176 969" style="z-index:1;margin-right:-2px;display:block;background-repeat-y:initial;background-repeat-x:initial;background-color:rgb(255, 255, 255);animation-play-state:paused" ><g transform="translate(588,484.5) scale(-1,1) translate(-588,-484.5)" style="transform:matrix(-1, 0, 0, 1, 1176, 0);animation-play-state:paused" ><linearGradient id="lg-0.3928245917140303" x1="0" x2="1" y1="0" y2="0" style="animation-play-state:paused" ><stop stop-color="#4bc5f3" offset="0" style="animation-play-state:paused" ></stop>


<stop stop-color="#0350a2" offset="1" style="animation-play-state:paused" ></stop></linearGradient>
<path d="M 0 0 L 0 1203.84 Q 294 665.072 588 644.123 T 1176 -248.214 L 1176 0 Z" fill="url(#lg-0.3928245917140303)" opacity="0.4" style="opacity:0.4;animation-play-state:paused" ></path>
<path d="M 0 0 L 0 1288.48 Q 294 519.418 588 485.529 T 1176 -226.265 L 1176 0 Z" fill="url(#lg-0.3928245917140303)" opacity="0.4" style="opacity:0.4;animation-play-state:paused" ></path>
<path d="M 0 0 L 0 1235.52 Q 294 426.305 588 395.82 T 1176 -346.799 L 1176 0 Z" fill="url(#lg-0.3928245917140303)" opacity="0.4" style="opacity:0.4;animation-play-state:paused" ></path>
<path d="M 0 0 L 0 1206.24 Q 294 495.991 588 458.635 T 1176 -252.203 L 1176 0 Z" fill="url(#lg-0.3928245917140303)" opacity="0.4" style="opacity:0.4;animation-play-state:paused" ></path>
<path d="M 0 0 L 0 1124.31 Q 294 439.684 588 412.165 T 1176 -243.923 L 1176 0 Z" fill="url(#lg-0.3928245917140303)" opacity="0.4" style="opacity:0.4;animation-play-state:paused" ></path></g></svg>